<svg xmlns="http://www.w3.org/2000/svg" width="882px" height="180px" viewBox="0 0 882 180">
<g>
	<path fill="#282828" d="M315.521,126.539c-4.787,5.484-10.696,9.82-17.725,13.02
		c-7.031,3.199-15.126,4.805-24.299,4.805c-8.347,0-16.063-1.371-23.142-4.113c-6.858-2.602-13.122-6.563-18.407-11.648
		c-5.262-5.121-9.425-11.262-12.229-18.053c-2.953-7.008-4.43-14.725-4.43-23.153c0-8.628,1.5-16.444,4.506-23.461
		c2.845-6.773,7.087-12.87,12.451-17.892c5.396-4.983,11.736-8.839,18.642-11.338c7.128-2.64,14.821-3.961,23.071-3.961
		c7.644,0,15.155,1.339,22.535,4.031c7.386,2.689,13.368,6.624,17.953,11.804L296.73,64.248c-2.44-3.349-5.78-5.936-9.63-7.465
		c-3.876-1.603-8.027-2.432-12.223-2.435c-4.585,0-8.783,0.838-12.601,2.514c-3.727,1.608-7.081,3.967-9.858,6.929
		c-2.801,3.023-4.98,6.568-6.419,10.43c-1.564,4.213-2.341,8.681-2.291,13.175c0,4.872,0.768,9.343,2.291,13.403
		c1.406,3.861,3.563,7.412,6.343,10.436c2.698,2.895,5.933,5.156,9.7,6.779c3.771,1.623,7.896,2.438,12.378,2.438
		c5.191,0,9.721-1.025,13.597-3.053c3.686-1.869,6.876-4.582,9.319-7.916l18.179,17.057H315.521z M397.494,103.236
		c0,6.193-1.122,11.801-3.36,16.834c-2.124,4.857-5.247,9.211-9.167,12.785c-3.929,3.539-8.49,6.311-13.447,8.156
		c-5.227,1.957-10.77,2.93-16.351,2.895c-5.698,0-11.124-0.961-16.271-2.895c-4.963-1.822-9.527-4.594-13.438-8.156
		c-3.885-3.586-6.981-7.945-9.097-12.785c-2.238-5.033-3.36-10.641-3.36-16.834s1.122-11.777,3.36-16.752
		c2.115-4.802,5.212-9.108,9.091-12.642c3.911-3.507,8.481-6.199,13.444-7.922c5.227-1.84,10.731-2.769,16.271-2.742
		c5.81,0,11.256,0.914,16.351,2.742c4.951,1.746,9.516,4.436,13.441,7.922c3.92,3.516,7.046,7.825,9.173,12.642
		C396.372,91.465,397.494,97.043,397.494,103.236z M373.356,103.236c0-2.438-0.407-4.822-1.225-7.154
		c-0.773-2.262-1.966-4.356-3.516-6.173c-1.573-1.811-3.495-3.287-5.651-4.336c-2.244-1.122-4.837-1.682-7.796-1.682
		c-2.95,0-5.549,0.56-7.787,1.682c-2.145,1.037-4.043,2.517-5.581,4.336c-1.5,1.825-2.64,3.917-3.357,6.173
		c-1.532,4.646-1.532,9.662,0,14.309c0.762,2.344,1.907,4.441,3.437,6.328c1.523,1.875,3.413,3.375,5.651,4.494
		c2.244,1.119,4.837,1.67,7.796,1.67c2.95,0,5.549-0.551,7.787-1.676c2.244-1.113,4.128-2.613,5.657-4.488
		c1.523-1.875,2.672-3.99,3.439-6.328c0.762-2.332,1.14-4.723,1.14-7.154H373.356z M456.703,141.469v-41.432
		c0-2.127-0.182-4.166-0.539-6.088c-0.305-1.784-0.902-3.507-1.758-5.101c-0.797-1.465-1.992-2.678-3.434-3.51
		c-1.477-0.858-3.34-1.292-5.578-1.292c-2.241,0-4.201,0.434-5.883,1.292c-1.679,0.864-3.079,2.057-4.198,3.58
		c-1.151,1.588-2.004,3.366-2.522,5.253c-0.563,1.98-0.838,4.037-0.838,6.176v41.121H406.74V65.616h24.293v10.512h0.302
		c0.923-1.626,2.118-3.229,3.598-4.799c1.471-1.573,3.205-2.918,5.191-4.04c2.057-1.146,4.233-2.065,6.489-2.742
		c2.344-0.706,4.846-1.061,7.488-1.061c5.098,0,9.422,0.911,12.996,2.742c3.375,1.673,6.328,4.096,8.625,7.078
		c2.227,2.977,3.844,6.369,4.74,9.979c0.967,3.756,1.447,7.512,1.447,11.268v46.916H456.703z M541.271,141.469H514.23
		l-29.947-75.853h27.65l16.049,49.204h0.451l16.049-49.204h26.736l-29.941,75.853H541.271z M626.613,94.863
		c0-3.964-1.254-7.365-3.75-10.204c-2.496-2.848-6.234-4.271-11.227-4.271c-2.443,0-4.682,0.384-6.727,1.14
		c-2.039,0.768-3.82,1.808-5.344,3.126c-1.529,1.321-2.754,2.868-3.668,4.644c-0.902,1.723-1.418,3.621-1.523,5.566H626.613z
		 M649.676,104.461v3.041c0,1.02-0.047,1.98-0.152,2.889h-55.148c0.199,2.139,0.838,4.066,1.904,5.789
		c1.072,1.734,2.443,3.223,4.131,4.5c1.676,1.266,3.563,2.25,5.648,2.965s4.254,1.066,6.492,1.066c3.973,0,7.336-0.732,10.078-2.209
		c2.643-1.377,4.945-3.328,6.727-5.713l17.42,10.969c-3.557,5.174-8.438,9.305-14.127,11.959
		c-5.865,2.789-12.662,4.189-20.402,4.189c-5.701,0-11.098-0.891-16.201-2.666c-4.922-1.682-9.463-4.318-13.365-7.77
		c-3.879-3.486-6.955-7.775-9.012-12.568c-2.191-4.98-3.281-10.658-3.281-17.051c0-6.199,1.066-11.813,3.211-16.834
		c1.992-4.816,4.957-9.173,8.701-12.797c3.744-3.554,8.162-6.322,12.984-8.147c5.174-1.963,10.67-2.944,16.201-2.895
		c5.602,0,10.74,0.943,15.434,2.821c4.57,1.802,8.684,4.582,12.064,8.147c3.357,3.554,5.988,7.866,7.869,12.943
		c1.887,5.08,2.824,10.866,2.824,17.364V104.461z M707.971,86.027c-1.072-0.296-2.174-0.501-3.287-0.612
		c-1.037-0.1-2.086-0.149-3.129-0.149c-3.357,0-6.188,0.606-8.484,1.825c-2.115,1.078-3.984,2.584-5.496,4.421
		c-1.377,1.723-2.367,3.598-2.977,5.637c-0.563,1.723-0.873,3.516-0.926,5.326v38.994h-25.055V65.616h24.141v10.969h0.305
		c1.893-3.809,4.734-7.061,8.262-9.445c3.563-2.435,7.682-3.659,12.369-3.659c1.02,0,2.01,0.059,2.982,0.155
		c0.961,0.103,1.758,0.252,2.361,0.457L707.971,86.027z M737.848,84.349v28.942c0,3.557,0.686,6.217,2.063,7.992
		c1.371,1.775,3.838,2.666,7.406,2.666c1.225,0,2.52-0.094,3.902-0.305c1.371-0.199,2.52-0.504,3.434-0.914l0.305,18.281
		c-1.734,0.609-3.926,1.137-6.574,1.594c-2.619,0.457-5.279,0.686-7.939,0.686c-5.092,0-9.369-0.627-12.838-1.904
		c-3.457-1.266-6.234-3.094-8.326-5.484c-2.127-2.461-3.668-5.379-4.506-8.52c-0.955-3.604-1.418-7.318-1.383-11.039V84.349
		l-4.178,1.734V65.312l4.031,0.305V45.665h24.604v19.951h17.877v18.732H737.848z M788.039,41.399c0,1.934-0.387,3.732-1.148,5.405
		c-0.762,1.682-1.781,3.12-3.059,4.345c-2.766,2.555-6.393,3.97-10.16,3.961c-4.066,0-7.488-1.351-10.23-4.037
		c-2.672-2.505-4.172-6.012-4.125-9.674c0-1.828,0.352-3.58,1.066-5.256c0.715-1.673,1.734-3.12,3.059-4.339
		c1.318-1.216,2.848-2.206,4.582-2.968c1.729-0.762,3.609-1.14,5.648-1.14c3.768-0.009,7.395,1.403,10.16,3.958
		c1.277,1.213,2.297,2.666,3.059,4.339c0.762,1.679,1.143,3.48,1.143,5.405H788.039z M761.145,141.469V65.616h25.061v75.853H761.145
		z M880.102,103.236c0,6.193-1.125,11.801-3.363,16.834c-2.121,4.857-5.25,9.211-9.164,12.785
		c-3.932,3.539-8.496,6.311-13.453,8.156c-5.227,1.957-10.77,2.93-16.348,2.895c-5.695,0-11.133-0.961-16.271-2.895
		c-4.963-1.822-9.533-4.594-13.436-8.156c-3.891-3.586-6.984-7.945-9.1-12.785c-2.244-5.033-3.357-10.641-3.357-16.834
		s1.113-11.777,3.357-16.752c2.115-4.802,5.209-9.108,9.088-12.642c3.914-3.507,8.484-6.199,13.447-7.922
		c5.227-1.84,10.729-2.769,16.271-2.742c5.813,0,11.256,0.914,16.348,2.742c4.957,1.746,9.516,4.436,13.441,7.922
		c3.92,3.516,7.043,7.825,9.17,12.642c2.244,4.98,3.357,10.559,3.357,16.752H880.102z M855.955,103.236
		c0-2.438-0.41-4.822-1.219-7.154c-0.773-2.262-1.963-4.356-3.516-6.173c-1.576-1.811-3.498-3.287-5.654-4.336
		c-2.238-1.122-4.84-1.682-7.793-1.682s-5.549,0.56-7.793,1.682c-2.145,1.037-4.043,2.517-5.578,4.336
		c-1.5,1.825-2.648,3.917-3.363,6.173c-1.529,4.646-1.529,9.662,0,14.309c0.773,2.344,1.916,4.441,3.445,6.328
		c1.523,1.875,3.41,3.375,5.648,4.494s4.84,1.67,7.793,1.67s5.555-0.551,7.799-1.676c2.238-1.113,4.119-2.613,5.643-4.488
		c1.535-1.875,2.678-3.99,3.445-6.328C855.574,108.059,855.955,105.668,855.955,103.236z"/>
	<g>
		<path fill="#FF3333" d="M180,90c0,49.705-40.295,90-90,90S0,139.705,0,90S40.295,0,90,0S180,40.295,180,90z"/>
		<path fill="#FFFFFF" d="M161.268,90.029l-33.299,37.178L94.667,90.029h17.32c-0.006-12.911-3.19-20.543-13.324-30.536
			c-9.929-10.008-19.98-15.817-37.295-17.265c20.112-9.498,46.623-10.485,65.271,7.966c10.688,10.761,18.814,25.775,18.645,39.835
			H161.268z M68.024,89.977h17.314L52.04,52.796L18.744,89.971h15.981v0.006c-0.173,14.063,7.957,29.074,18.642,39.832
			c18.653,18.451,45.158,17.473,65.271,7.969c-17.314-1.441-27.36-7.254-37.295-17.262C71.212,110.52,68.024,102.891,68.024,89.977z
			"/>
	</g>
</g>
</svg>
